<mxfile host="app.diagrams.net" modified="2022-03-15T12:37:46.046Z" agent="5.0 (X11; Linux x86_64) AppleWebKit/537.36 (KHTML, like Gecko) Chrome/99.0.4844.51 Safari/537.36" etag="y-rKFhEyW1VZwx22k2ZQ" version="17.1.2" type="github">
  <diagram id="d1tCrbpeW7doNasqjOfv" name="Page-1">
    <mxGraphModel dx="868" dy="424" grid="1" gridSize="10" guides="1" tooltips="1" connect="1" arrows="1" fold="1" page="1" pageScale="1" pageWidth="827" pageHeight="1169" math="0" shadow="0">
      <root>
        <mxCell id="0" />
        <mxCell id="1" parent="0" />
        <mxCell id="9KFcbnp4R5V4EEqKoFkb-139" value="" style="rounded=0;whiteSpace=wrap;html=1;" vertex="1" parent="1">
          <mxGeometry x="10" y="14" width="500" height="386" as="geometry" />
        </mxCell>
        <mxCell id="9KFcbnp4R5V4EEqKoFkb-126" style="edgeStyle=orthogonalEdgeStyle;rounded=0;orthogonalLoop=1;jettySize=auto;html=1;exitX=0.25;exitY=1;exitDx=0;exitDy=0;entryX=0.99;entryY=0.594;entryDx=0;entryDy=0;entryPerimeter=0;" edge="1" parent="1" source="9KFcbnp4R5V4EEqKoFkb-123" target="9KFcbnp4R5V4EEqKoFkb-59">
          <mxGeometry relative="1" as="geometry" />
        </mxCell>
        <mxCell id="9KFcbnp4R5V4EEqKoFkb-127" style="edgeStyle=orthogonalEdgeStyle;rounded=0;orthogonalLoop=1;jettySize=auto;html=1;exitX=0.5;exitY=1;exitDx=0;exitDy=0;entryX=0.5;entryY=1;entryDx=0;entryDy=0;" edge="1" parent="1" source="9KFcbnp4R5V4EEqKoFkb-123" target="9KFcbnp4R5V4EEqKoFkb-58">
          <mxGeometry relative="1" as="geometry" />
        </mxCell>
        <mxCell id="9KFcbnp4R5V4EEqKoFkb-128" style="edgeStyle=orthogonalEdgeStyle;rounded=0;orthogonalLoop=1;jettySize=auto;html=1;exitX=0.75;exitY=1;exitDx=0;exitDy=0;entryX=0.5;entryY=1;entryDx=0;entryDy=0;" edge="1" parent="1" source="9KFcbnp4R5V4EEqKoFkb-123" target="9KFcbnp4R5V4EEqKoFkb-21">
          <mxGeometry relative="1" as="geometry">
            <Array as="points">
              <mxPoint x="456" y="380" />
              <mxPoint x="99" y="380" />
            </Array>
          </mxGeometry>
        </mxCell>
        <mxCell id="9KFcbnp4R5V4EEqKoFkb-123" value="" style="rounded=1;whiteSpace=wrap;html=1;" vertex="1" parent="1">
          <mxGeometry x="381" y="153" width="100" height="97" as="geometry" />
        </mxCell>
        <mxCell id="9KFcbnp4R5V4EEqKoFkb-59" value="" style="rounded=1;whiteSpace=wrap;html=1;" vertex="1" parent="1">
          <mxGeometry x="260" y="244" width="100" height="101" as="geometry" />
        </mxCell>
        <mxCell id="9KFcbnp4R5V4EEqKoFkb-58" value="" style="rounded=1;whiteSpace=wrap;html=1;" vertex="1" parent="1">
          <mxGeometry x="153" y="244" width="100" height="101" as="geometry" />
        </mxCell>
        <mxCell id="9KFcbnp4R5V4EEqKoFkb-21" value="" style="rounded=1;whiteSpace=wrap;html=1;" vertex="1" parent="1">
          <mxGeometry x="49" y="244" width="100" height="101" as="geometry" />
        </mxCell>
        <mxCell id="9KFcbnp4R5V4EEqKoFkb-5" value="" style="shape=ellipse;html=1;dashed=0;whitespace=wrap;aspect=fixed;perimeter=ellipsePerimeter;fillColor=#dae8fc;strokeColor=#6c8ebf;" vertex="1" parent="1">
          <mxGeometry x="59" y="308" width="20" height="20" as="geometry" />
        </mxCell>
        <mxCell id="9KFcbnp4R5V4EEqKoFkb-6" value="" style="shape=ellipse;html=1;dashed=0;whitespace=wrap;aspect=fixed;perimeter=ellipsePerimeter;fillColor=#dae8fc;strokeColor=#6c8ebf;" vertex="1" parent="1">
          <mxGeometry x="89" y="308" width="20" height="20" as="geometry" />
        </mxCell>
        <mxCell id="9KFcbnp4R5V4EEqKoFkb-7" value="" style="shape=ellipse;html=1;dashed=0;whitespace=wrap;aspect=fixed;perimeter=ellipsePerimeter;fillColor=#dae8fc;strokeColor=#6c8ebf;" vertex="1" parent="1">
          <mxGeometry x="119" y="308" width="20" height="20" as="geometry" />
        </mxCell>
        <mxCell id="9KFcbnp4R5V4EEqKoFkb-10" value="" style="endArrow=classic;html=1;rounded=0;entryX=0;entryY=1;entryDx=0;entryDy=0;exitX=0;exitY=0;exitDx=0;exitDy=0;fillColor=#dae8fc;strokeColor=#6c8ebf;" edge="1" parent="1" source="9KFcbnp4R5V4EEqKoFkb-5" target="9KFcbnp4R5V4EEqKoFkb-11">
          <mxGeometry width="50" height="50" relative="1" as="geometry">
            <mxPoint x="69" y="305" as="sourcePoint" />
            <mxPoint x="89" y="285" as="targetPoint" />
          </mxGeometry>
        </mxCell>
        <mxCell id="9KFcbnp4R5V4EEqKoFkb-11" value="" style="shape=ellipse;html=1;dashed=0;whitespace=wrap;aspect=fixed;perimeter=ellipsePerimeter;fillColor=#dae8fc;strokeColor=#6c8ebf;" vertex="1" parent="1">
          <mxGeometry x="73" y="277" width="20" height="20" as="geometry" />
        </mxCell>
        <mxCell id="9KFcbnp4R5V4EEqKoFkb-12" value="" style="shape=ellipse;html=1;dashed=0;whitespace=wrap;aspect=fixed;perimeter=ellipsePerimeter;fillColor=#dae8fc;strokeColor=#6c8ebf;" vertex="1" parent="1">
          <mxGeometry x="109" y="277" width="20" height="20" as="geometry" />
        </mxCell>
        <mxCell id="9KFcbnp4R5V4EEqKoFkb-13" value="" style="shape=ellipse;html=1;dashed=0;whitespace=wrap;aspect=fixed;perimeter=ellipsePerimeter;fillColor=#dae8fc;strokeColor=#6c8ebf;" vertex="1" parent="1">
          <mxGeometry x="91" y="255" width="20" height="20" as="geometry" />
        </mxCell>
        <mxCell id="9KFcbnp4R5V4EEqKoFkb-15" value="" style="endArrow=classic;html=1;rounded=0;exitX=1;exitY=0;exitDx=0;exitDy=0;entryX=0;entryY=0.5;entryDx=0;entryDy=0;fillColor=#dae8fc;strokeColor=#6c8ebf;" edge="1" parent="1" source="9KFcbnp4R5V4EEqKoFkb-5" target="9KFcbnp4R5V4EEqKoFkb-12">
          <mxGeometry width="50" height="50" relative="1" as="geometry">
            <mxPoint x="390" y="294" as="sourcePoint" />
            <mxPoint x="440" y="244" as="targetPoint" />
            <Array as="points" />
          </mxGeometry>
        </mxCell>
        <mxCell id="9KFcbnp4R5V4EEqKoFkb-16" value="" style="endArrow=classic;html=1;rounded=0;exitX=1;exitY=0;exitDx=0;exitDy=0;entryX=0;entryY=1;entryDx=0;entryDy=0;fillColor=#dae8fc;strokeColor=#6c8ebf;" edge="1" parent="1" source="9KFcbnp4R5V4EEqKoFkb-6" target="9KFcbnp4R5V4EEqKoFkb-12">
          <mxGeometry width="50" height="50" relative="1" as="geometry">
            <mxPoint x="330" y="314" as="sourcePoint" />
            <mxPoint x="440" y="244" as="targetPoint" />
          </mxGeometry>
        </mxCell>
        <mxCell id="9KFcbnp4R5V4EEqKoFkb-17" value="" style="endArrow=classic;html=1;rounded=0;exitX=0;exitY=0;exitDx=0;exitDy=0;entryX=1;entryY=1;entryDx=0;entryDy=0;fillColor=#dae8fc;strokeColor=#6c8ebf;" edge="1" parent="1" source="9KFcbnp4R5V4EEqKoFkb-6" target="9KFcbnp4R5V4EEqKoFkb-11">
          <mxGeometry width="50" height="50" relative="1" as="geometry">
            <mxPoint x="390" y="254" as="sourcePoint" />
            <mxPoint x="440" y="204" as="targetPoint" />
          </mxGeometry>
        </mxCell>
        <mxCell id="9KFcbnp4R5V4EEqKoFkb-18" value="" style="endArrow=classic;html=1;rounded=0;exitX=0.5;exitY=0;exitDx=0;exitDy=0;entryX=1;entryY=1;entryDx=0;entryDy=0;fillColor=#dae8fc;strokeColor=#6c8ebf;" edge="1" parent="1" source="9KFcbnp4R5V4EEqKoFkb-7" target="9KFcbnp4R5V4EEqKoFkb-12">
          <mxGeometry width="50" height="50" relative="1" as="geometry">
            <mxPoint x="390" y="254" as="sourcePoint" />
            <mxPoint x="440" y="204" as="targetPoint" />
          </mxGeometry>
        </mxCell>
        <mxCell id="9KFcbnp4R5V4EEqKoFkb-19" value="" style="endArrow=classic;html=1;rounded=0;exitX=0.5;exitY=0;exitDx=0;exitDy=0;entryX=0;entryY=0.5;entryDx=0;entryDy=0;fillColor=#dae8fc;strokeColor=#6c8ebf;" edge="1" parent="1" source="9KFcbnp4R5V4EEqKoFkb-11" target="9KFcbnp4R5V4EEqKoFkb-13">
          <mxGeometry width="50" height="50" relative="1" as="geometry">
            <mxPoint x="390" y="254" as="sourcePoint" />
            <mxPoint x="440" y="204" as="targetPoint" />
          </mxGeometry>
        </mxCell>
        <mxCell id="9KFcbnp4R5V4EEqKoFkb-20" value="" style="endArrow=classic;html=1;rounded=0;exitX=0.5;exitY=0;exitDx=0;exitDy=0;entryX=1;entryY=0.5;entryDx=0;entryDy=0;fillColor=#dae8fc;strokeColor=#6c8ebf;" edge="1" parent="1" source="9KFcbnp4R5V4EEqKoFkb-12" target="9KFcbnp4R5V4EEqKoFkb-13">
          <mxGeometry width="50" height="50" relative="1" as="geometry">
            <mxPoint x="390" y="254" as="sourcePoint" />
            <mxPoint x="440" y="204" as="targetPoint" />
          </mxGeometry>
        </mxCell>
        <mxCell id="9KFcbnp4R5V4EEqKoFkb-32" value="" style="shape=ellipse;html=1;dashed=0;whitespace=wrap;aspect=fixed;perimeter=ellipsePerimeter;fillColor=#d5e8d4;strokeColor=#82b366;" vertex="1" parent="1">
          <mxGeometry x="161" y="307" width="20" height="20" as="geometry" />
        </mxCell>
        <mxCell id="9KFcbnp4R5V4EEqKoFkb-33" value="" style="shape=ellipse;html=1;dashed=0;whitespace=wrap;aspect=fixed;perimeter=ellipsePerimeter;fillColor=#d5e8d4;strokeColor=#82b366;" vertex="1" parent="1">
          <mxGeometry x="191" y="307" width="20" height="20" as="geometry" />
        </mxCell>
        <mxCell id="9KFcbnp4R5V4EEqKoFkb-34" value="" style="shape=ellipse;html=1;dashed=0;whitespace=wrap;aspect=fixed;perimeter=ellipsePerimeter;fillColor=#d5e8d4;strokeColor=#82b366;" vertex="1" parent="1">
          <mxGeometry x="221" y="307" width="20" height="20" as="geometry" />
        </mxCell>
        <mxCell id="9KFcbnp4R5V4EEqKoFkb-35" value="" style="endArrow=classic;html=1;rounded=0;entryX=0;entryY=1;entryDx=0;entryDy=0;exitX=0;exitY=0;exitDx=0;exitDy=0;fillColor=#d5e8d4;strokeColor=#82b366;" edge="1" parent="1" source="9KFcbnp4R5V4EEqKoFkb-32" target="9KFcbnp4R5V4EEqKoFkb-36">
          <mxGeometry width="50" height="50" relative="1" as="geometry">
            <mxPoint x="171" y="304" as="sourcePoint" />
            <mxPoint x="191" y="284" as="targetPoint" />
          </mxGeometry>
        </mxCell>
        <mxCell id="9KFcbnp4R5V4EEqKoFkb-36" value="" style="shape=ellipse;html=1;dashed=0;whitespace=wrap;aspect=fixed;perimeter=ellipsePerimeter;fillColor=#d5e8d4;strokeColor=#82b366;" vertex="1" parent="1">
          <mxGeometry x="175" y="276" width="20" height="20" as="geometry" />
        </mxCell>
        <mxCell id="9KFcbnp4R5V4EEqKoFkb-37" value="" style="shape=ellipse;html=1;dashed=0;whitespace=wrap;aspect=fixed;perimeter=ellipsePerimeter;fillColor=#d5e8d4;strokeColor=#82b366;" vertex="1" parent="1">
          <mxGeometry x="211" y="276" width="20" height="20" as="geometry" />
        </mxCell>
        <mxCell id="9KFcbnp4R5V4EEqKoFkb-38" value="" style="shape=ellipse;html=1;dashed=0;whitespace=wrap;aspect=fixed;perimeter=ellipsePerimeter;fillColor=#d5e8d4;strokeColor=#82b366;" vertex="1" parent="1">
          <mxGeometry x="193" y="254" width="20" height="20" as="geometry" />
        </mxCell>
        <mxCell id="9KFcbnp4R5V4EEqKoFkb-39" value="" style="endArrow=classic;html=1;rounded=0;exitX=1;exitY=0;exitDx=0;exitDy=0;entryX=0;entryY=0.5;entryDx=0;entryDy=0;fillColor=#d5e8d4;strokeColor=#82b366;" edge="1" parent="1" source="9KFcbnp4R5V4EEqKoFkb-32" target="9KFcbnp4R5V4EEqKoFkb-37">
          <mxGeometry width="50" height="50" relative="1" as="geometry">
            <mxPoint x="492" y="293" as="sourcePoint" />
            <mxPoint x="542" y="243" as="targetPoint" />
            <Array as="points" />
          </mxGeometry>
        </mxCell>
        <mxCell id="9KFcbnp4R5V4EEqKoFkb-40" value="" style="endArrow=classic;html=1;rounded=0;exitX=1;exitY=0;exitDx=0;exitDy=0;entryX=0;entryY=1;entryDx=0;entryDy=0;fillColor=#d5e8d4;strokeColor=#82b366;" edge="1" parent="1" source="9KFcbnp4R5V4EEqKoFkb-33" target="9KFcbnp4R5V4EEqKoFkb-37">
          <mxGeometry width="50" height="50" relative="1" as="geometry">
            <mxPoint x="432" y="313" as="sourcePoint" />
            <mxPoint x="542" y="243" as="targetPoint" />
          </mxGeometry>
        </mxCell>
        <mxCell id="9KFcbnp4R5V4EEqKoFkb-41" value="" style="endArrow=classic;html=1;rounded=0;exitX=0;exitY=0;exitDx=0;exitDy=0;entryX=1;entryY=1;entryDx=0;entryDy=0;fillColor=#d5e8d4;strokeColor=#82b366;" edge="1" parent="1" source="9KFcbnp4R5V4EEqKoFkb-33" target="9KFcbnp4R5V4EEqKoFkb-36">
          <mxGeometry width="50" height="50" relative="1" as="geometry">
            <mxPoint x="492" y="253" as="sourcePoint" />
            <mxPoint x="542" y="203" as="targetPoint" />
          </mxGeometry>
        </mxCell>
        <mxCell id="9KFcbnp4R5V4EEqKoFkb-42" value="" style="endArrow=classic;html=1;rounded=0;exitX=0.5;exitY=0;exitDx=0;exitDy=0;entryX=1;entryY=1;entryDx=0;entryDy=0;fillColor=#d5e8d4;strokeColor=#82b366;" edge="1" parent="1" source="9KFcbnp4R5V4EEqKoFkb-34" target="9KFcbnp4R5V4EEqKoFkb-37">
          <mxGeometry width="50" height="50" relative="1" as="geometry">
            <mxPoint x="492" y="253" as="sourcePoint" />
            <mxPoint x="542" y="203" as="targetPoint" />
          </mxGeometry>
        </mxCell>
        <mxCell id="9KFcbnp4R5V4EEqKoFkb-43" value="" style="endArrow=classic;html=1;rounded=0;exitX=0.5;exitY=0;exitDx=0;exitDy=0;entryX=0;entryY=0.5;entryDx=0;entryDy=0;fillColor=#d5e8d4;strokeColor=#82b366;" edge="1" parent="1" source="9KFcbnp4R5V4EEqKoFkb-36" target="9KFcbnp4R5V4EEqKoFkb-38">
          <mxGeometry width="50" height="50" relative="1" as="geometry">
            <mxPoint x="492" y="253" as="sourcePoint" />
            <mxPoint x="542" y="203" as="targetPoint" />
          </mxGeometry>
        </mxCell>
        <mxCell id="9KFcbnp4R5V4EEqKoFkb-44" value="" style="endArrow=classic;html=1;rounded=0;exitX=0.5;exitY=0;exitDx=0;exitDy=0;entryX=1;entryY=0.5;entryDx=0;entryDy=0;fillColor=#d5e8d4;strokeColor=#82b366;" edge="1" parent="1" source="9KFcbnp4R5V4EEqKoFkb-37" target="9KFcbnp4R5V4EEqKoFkb-38">
          <mxGeometry width="50" height="50" relative="1" as="geometry">
            <mxPoint x="492" y="253" as="sourcePoint" />
            <mxPoint x="542" y="203" as="targetPoint" />
          </mxGeometry>
        </mxCell>
        <mxCell id="9KFcbnp4R5V4EEqKoFkb-45" value="" style="shape=ellipse;html=1;dashed=0;whitespace=wrap;aspect=fixed;perimeter=ellipsePerimeter;fillColor=#e1d5e7;strokeColor=#9673a6;" vertex="1" parent="1">
          <mxGeometry x="271" y="307" width="20" height="20" as="geometry" />
        </mxCell>
        <mxCell id="9KFcbnp4R5V4EEqKoFkb-46" value="" style="shape=ellipse;html=1;dashed=0;whitespace=wrap;aspect=fixed;perimeter=ellipsePerimeter;fillColor=#e1d5e7;strokeColor=#9673a6;" vertex="1" parent="1">
          <mxGeometry x="301" y="307" width="20" height="20" as="geometry" />
        </mxCell>
        <mxCell id="9KFcbnp4R5V4EEqKoFkb-47" value="" style="shape=ellipse;html=1;dashed=0;whitespace=wrap;aspect=fixed;perimeter=ellipsePerimeter;fillColor=#e1d5e7;strokeColor=#9673a6;" vertex="1" parent="1">
          <mxGeometry x="331" y="307" width="20" height="20" as="geometry" />
        </mxCell>
        <mxCell id="9KFcbnp4R5V4EEqKoFkb-48" value="" style="endArrow=classic;html=1;rounded=0;entryX=0;entryY=1;entryDx=0;entryDy=0;exitX=0;exitY=0;exitDx=0;exitDy=0;fillColor=#e1d5e7;strokeColor=#9673a6;" edge="1" parent="1" source="9KFcbnp4R5V4EEqKoFkb-45" target="9KFcbnp4R5V4EEqKoFkb-49">
          <mxGeometry width="50" height="50" relative="1" as="geometry">
            <mxPoint x="281" y="304" as="sourcePoint" />
            <mxPoint x="301" y="284" as="targetPoint" />
          </mxGeometry>
        </mxCell>
        <mxCell id="9KFcbnp4R5V4EEqKoFkb-49" value="" style="shape=ellipse;html=1;dashed=0;whitespace=wrap;aspect=fixed;perimeter=ellipsePerimeter;fillColor=#e1d5e7;strokeColor=#9673a6;" vertex="1" parent="1">
          <mxGeometry x="285" y="276" width="20" height="20" as="geometry" />
        </mxCell>
        <mxCell id="9KFcbnp4R5V4EEqKoFkb-50" value="" style="shape=ellipse;html=1;dashed=0;whitespace=wrap;aspect=fixed;perimeter=ellipsePerimeter;fillColor=#e1d5e7;strokeColor=#9673a6;" vertex="1" parent="1">
          <mxGeometry x="321" y="276" width="20" height="20" as="geometry" />
        </mxCell>
        <mxCell id="9KFcbnp4R5V4EEqKoFkb-51" value="" style="shape=ellipse;html=1;dashed=0;whitespace=wrap;aspect=fixed;perimeter=ellipsePerimeter;fillColor=#e1d5e7;strokeColor=#9673a6;" vertex="1" parent="1">
          <mxGeometry x="303" y="254" width="20" height="20" as="geometry" />
        </mxCell>
        <mxCell id="9KFcbnp4R5V4EEqKoFkb-52" value="" style="endArrow=classic;html=1;rounded=0;exitX=1;exitY=0;exitDx=0;exitDy=0;entryX=0;entryY=0.5;entryDx=0;entryDy=0;fillColor=#e1d5e7;strokeColor=#9673a6;" edge="1" parent="1" source="9KFcbnp4R5V4EEqKoFkb-45" target="9KFcbnp4R5V4EEqKoFkb-50">
          <mxGeometry width="50" height="50" relative="1" as="geometry">
            <mxPoint x="602" y="293" as="sourcePoint" />
            <mxPoint x="652" y="243" as="targetPoint" />
            <Array as="points" />
          </mxGeometry>
        </mxCell>
        <mxCell id="9KFcbnp4R5V4EEqKoFkb-53" value="" style="endArrow=classic;html=1;rounded=0;exitX=1;exitY=0;exitDx=0;exitDy=0;entryX=0;entryY=1;entryDx=0;entryDy=0;fillColor=#e1d5e7;strokeColor=#9673a6;" edge="1" parent="1" source="9KFcbnp4R5V4EEqKoFkb-46" target="9KFcbnp4R5V4EEqKoFkb-50">
          <mxGeometry width="50" height="50" relative="1" as="geometry">
            <mxPoint x="542" y="313" as="sourcePoint" />
            <mxPoint x="652" y="243" as="targetPoint" />
          </mxGeometry>
        </mxCell>
        <mxCell id="9KFcbnp4R5V4EEqKoFkb-54" value="" style="endArrow=classic;html=1;rounded=0;exitX=0;exitY=0;exitDx=0;exitDy=0;entryX=1;entryY=1;entryDx=0;entryDy=0;fillColor=#e1d5e7;strokeColor=#9673a6;" edge="1" parent="1" source="9KFcbnp4R5V4EEqKoFkb-46" target="9KFcbnp4R5V4EEqKoFkb-49">
          <mxGeometry width="50" height="50" relative="1" as="geometry">
            <mxPoint x="602" y="253" as="sourcePoint" />
            <mxPoint x="652" y="203" as="targetPoint" />
          </mxGeometry>
        </mxCell>
        <mxCell id="9KFcbnp4R5V4EEqKoFkb-55" value="" style="endArrow=classic;html=1;rounded=0;exitX=0.5;exitY=0;exitDx=0;exitDy=0;entryX=1;entryY=1;entryDx=0;entryDy=0;fillColor=#e1d5e7;strokeColor=#9673a6;" edge="1" parent="1" source="9KFcbnp4R5V4EEqKoFkb-47" target="9KFcbnp4R5V4EEqKoFkb-50">
          <mxGeometry width="50" height="50" relative="1" as="geometry">
            <mxPoint x="602" y="253" as="sourcePoint" />
            <mxPoint x="652" y="203" as="targetPoint" />
          </mxGeometry>
        </mxCell>
        <mxCell id="9KFcbnp4R5V4EEqKoFkb-56" value="" style="endArrow=classic;html=1;rounded=0;exitX=0.5;exitY=0;exitDx=0;exitDy=0;entryX=0;entryY=0.5;entryDx=0;entryDy=0;fillColor=#e1d5e7;strokeColor=#9673a6;" edge="1" parent="1" source="9KFcbnp4R5V4EEqKoFkb-49" target="9KFcbnp4R5V4EEqKoFkb-51">
          <mxGeometry width="50" height="50" relative="1" as="geometry">
            <mxPoint x="602" y="253" as="sourcePoint" />
            <mxPoint x="652" y="203" as="targetPoint" />
          </mxGeometry>
        </mxCell>
        <mxCell id="9KFcbnp4R5V4EEqKoFkb-57" value="" style="endArrow=classic;html=1;rounded=0;exitX=0.5;exitY=0;exitDx=0;exitDy=0;entryX=1;entryY=0.5;entryDx=0;entryDy=0;fillColor=#e1d5e7;strokeColor=#9673a6;" edge="1" parent="1" source="9KFcbnp4R5V4EEqKoFkb-50" target="9KFcbnp4R5V4EEqKoFkb-51">
          <mxGeometry width="50" height="50" relative="1" as="geometry">
            <mxPoint x="602" y="253" as="sourcePoint" />
            <mxPoint x="652" y="203" as="targetPoint" />
          </mxGeometry>
        </mxCell>
        <mxCell id="9KFcbnp4R5V4EEqKoFkb-60" value="" style="rounded=1;whiteSpace=wrap;html=1;" vertex="1" parent="1">
          <mxGeometry x="41.5" y="38" width="338.5" height="120" as="geometry" />
        </mxCell>
        <mxCell id="9KFcbnp4R5V4EEqKoFkb-64" value="" style="shape=ellipse;html=1;dashed=0;whitespace=wrap;aspect=fixed;perimeter=ellipsePerimeter;fillColor=#dae8fc;strokeColor=#6c8ebf;" vertex="1" parent="1">
          <mxGeometry x="65.25" y="112" width="20" height="20" as="geometry" />
        </mxCell>
        <mxCell id="9KFcbnp4R5V4EEqKoFkb-65" value="" style="shape=ellipse;html=1;dashed=0;whitespace=wrap;aspect=fixed;perimeter=ellipsePerimeter;fillColor=#dae8fc;strokeColor=#6c8ebf;" vertex="1" parent="1">
          <mxGeometry x="95.25" y="112" width="20" height="20" as="geometry" />
        </mxCell>
        <mxCell id="9KFcbnp4R5V4EEqKoFkb-66" value="" style="shape=ellipse;html=1;dashed=0;whitespace=wrap;aspect=fixed;perimeter=ellipsePerimeter;fillColor=#dae8fc;strokeColor=#6c8ebf;" vertex="1" parent="1">
          <mxGeometry x="125.25" y="112" width="20" height="20" as="geometry" />
        </mxCell>
        <mxCell id="9KFcbnp4R5V4EEqKoFkb-67" value="" style="endArrow=classic;html=1;rounded=0;entryX=0;entryY=1;entryDx=0;entryDy=0;exitX=0;exitY=0;exitDx=0;exitDy=0;fillColor=#dae8fc;strokeColor=#6c8ebf;" edge="1" parent="1" source="9KFcbnp4R5V4EEqKoFkb-64" target="9KFcbnp4R5V4EEqKoFkb-68">
          <mxGeometry width="50" height="50" relative="1" as="geometry">
            <mxPoint x="75.25" y="109" as="sourcePoint" />
            <mxPoint x="95.25" y="89" as="targetPoint" />
          </mxGeometry>
        </mxCell>
        <mxCell id="9KFcbnp4R5V4EEqKoFkb-68" value="" style="shape=ellipse;html=1;dashed=0;whitespace=wrap;aspect=fixed;perimeter=ellipsePerimeter;fillColor=#dae8fc;strokeColor=#6c8ebf;" vertex="1" parent="1">
          <mxGeometry x="79.25" y="81" width="20" height="20" as="geometry" />
        </mxCell>
        <mxCell id="9KFcbnp4R5V4EEqKoFkb-69" value="" style="shape=ellipse;html=1;dashed=0;whitespace=wrap;aspect=fixed;perimeter=ellipsePerimeter;fillColor=#dae8fc;strokeColor=#6c8ebf;" vertex="1" parent="1">
          <mxGeometry x="115.25" y="81" width="20" height="20" as="geometry" />
        </mxCell>
        <mxCell id="9KFcbnp4R5V4EEqKoFkb-70" value="" style="shape=ellipse;html=1;dashed=0;whitespace=wrap;aspect=fixed;perimeter=ellipsePerimeter;fillColor=#dae8fc;strokeColor=#6c8ebf;" vertex="1" parent="1">
          <mxGeometry x="97.25" y="59" width="20" height="20" as="geometry" />
        </mxCell>
        <mxCell id="9KFcbnp4R5V4EEqKoFkb-71" value="" style="endArrow=classic;html=1;rounded=0;exitX=1;exitY=0;exitDx=0;exitDy=0;entryX=0;entryY=0.5;entryDx=0;entryDy=0;fillColor=#dae8fc;strokeColor=#6c8ebf;" edge="1" parent="1" source="9KFcbnp4R5V4EEqKoFkb-64" target="9KFcbnp4R5V4EEqKoFkb-69">
          <mxGeometry width="50" height="50" relative="1" as="geometry">
            <mxPoint x="396.25" y="98" as="sourcePoint" />
            <mxPoint x="446.25" y="48" as="targetPoint" />
            <Array as="points" />
          </mxGeometry>
        </mxCell>
        <mxCell id="9KFcbnp4R5V4EEqKoFkb-72" value="" style="endArrow=classic;html=1;rounded=0;exitX=1;exitY=0;exitDx=0;exitDy=0;entryX=0;entryY=1;entryDx=0;entryDy=0;fillColor=#dae8fc;strokeColor=#6c8ebf;" edge="1" parent="1" source="9KFcbnp4R5V4EEqKoFkb-65" target="9KFcbnp4R5V4EEqKoFkb-69">
          <mxGeometry width="50" height="50" relative="1" as="geometry">
            <mxPoint x="336.25" y="118" as="sourcePoint" />
            <mxPoint x="446.25" y="48" as="targetPoint" />
          </mxGeometry>
        </mxCell>
        <mxCell id="9KFcbnp4R5V4EEqKoFkb-73" value="" style="endArrow=classic;html=1;rounded=0;exitX=0;exitY=0;exitDx=0;exitDy=0;entryX=1;entryY=1;entryDx=0;entryDy=0;fillColor=#dae8fc;strokeColor=#6c8ebf;" edge="1" parent="1" source="9KFcbnp4R5V4EEqKoFkb-65" target="9KFcbnp4R5V4EEqKoFkb-68">
          <mxGeometry width="50" height="50" relative="1" as="geometry">
            <mxPoint x="396.25" y="58" as="sourcePoint" />
            <mxPoint x="446.25" y="8" as="targetPoint" />
          </mxGeometry>
        </mxCell>
        <mxCell id="9KFcbnp4R5V4EEqKoFkb-74" value="" style="endArrow=classic;html=1;rounded=0;exitX=0.5;exitY=0;exitDx=0;exitDy=0;entryX=1;entryY=1;entryDx=0;entryDy=0;fillColor=#dae8fc;strokeColor=#6c8ebf;" edge="1" parent="1" source="9KFcbnp4R5V4EEqKoFkb-66" target="9KFcbnp4R5V4EEqKoFkb-69">
          <mxGeometry width="50" height="50" relative="1" as="geometry">
            <mxPoint x="396.25" y="58" as="sourcePoint" />
            <mxPoint x="446.25" y="8" as="targetPoint" />
          </mxGeometry>
        </mxCell>
        <mxCell id="9KFcbnp4R5V4EEqKoFkb-75" value="" style="endArrow=classic;html=1;rounded=0;exitX=0.5;exitY=0;exitDx=0;exitDy=0;entryX=0;entryY=0.5;entryDx=0;entryDy=0;fillColor=#dae8fc;strokeColor=#6c8ebf;" edge="1" parent="1" source="9KFcbnp4R5V4EEqKoFkb-68" target="9KFcbnp4R5V4EEqKoFkb-70">
          <mxGeometry width="50" height="50" relative="1" as="geometry">
            <mxPoint x="396.25" y="58" as="sourcePoint" />
            <mxPoint x="446.25" y="8" as="targetPoint" />
          </mxGeometry>
        </mxCell>
        <mxCell id="9KFcbnp4R5V4EEqKoFkb-76" value="" style="endArrow=classic;html=1;rounded=0;exitX=0.5;exitY=0;exitDx=0;exitDy=0;entryX=1;entryY=0.5;entryDx=0;entryDy=0;fillColor=#dae8fc;strokeColor=#6c8ebf;" edge="1" parent="1" source="9KFcbnp4R5V4EEqKoFkb-69" target="9KFcbnp4R5V4EEqKoFkb-70">
          <mxGeometry width="50" height="50" relative="1" as="geometry">
            <mxPoint x="396.25" y="58" as="sourcePoint" />
            <mxPoint x="446.25" y="8" as="targetPoint" />
          </mxGeometry>
        </mxCell>
        <mxCell id="9KFcbnp4R5V4EEqKoFkb-77" value="" style="shape=ellipse;html=1;dashed=0;whitespace=wrap;aspect=fixed;perimeter=ellipsePerimeter;fillColor=#d5e8d4;strokeColor=#82b366;" vertex="1" parent="1">
          <mxGeometry x="167.25" y="111" width="20" height="20" as="geometry" />
        </mxCell>
        <mxCell id="9KFcbnp4R5V4EEqKoFkb-78" value="" style="shape=ellipse;html=1;dashed=0;whitespace=wrap;aspect=fixed;perimeter=ellipsePerimeter;fillColor=#d5e8d4;strokeColor=#82b366;" vertex="1" parent="1">
          <mxGeometry x="197.25" y="111" width="20" height="20" as="geometry" />
        </mxCell>
        <mxCell id="9KFcbnp4R5V4EEqKoFkb-79" value="" style="shape=ellipse;html=1;dashed=0;whitespace=wrap;aspect=fixed;perimeter=ellipsePerimeter;fillColor=#d5e8d4;strokeColor=#82b366;" vertex="1" parent="1">
          <mxGeometry x="227.25" y="111" width="20" height="20" as="geometry" />
        </mxCell>
        <mxCell id="9KFcbnp4R5V4EEqKoFkb-80" value="" style="endArrow=classic;html=1;rounded=0;entryX=0;entryY=1;entryDx=0;entryDy=0;exitX=0;exitY=0;exitDx=0;exitDy=0;fillColor=#d5e8d4;strokeColor=#82b366;" edge="1" parent="1" source="9KFcbnp4R5V4EEqKoFkb-77" target="9KFcbnp4R5V4EEqKoFkb-81">
          <mxGeometry width="50" height="50" relative="1" as="geometry">
            <mxPoint x="177.25" y="108" as="sourcePoint" />
            <mxPoint x="197.25" y="88" as="targetPoint" />
          </mxGeometry>
        </mxCell>
        <mxCell id="9KFcbnp4R5V4EEqKoFkb-81" value="" style="shape=ellipse;html=1;dashed=0;whitespace=wrap;aspect=fixed;perimeter=ellipsePerimeter;fillColor=#d5e8d4;strokeColor=#82b366;" vertex="1" parent="1">
          <mxGeometry x="181.25" y="80" width="20" height="20" as="geometry" />
        </mxCell>
        <mxCell id="9KFcbnp4R5V4EEqKoFkb-82" value="" style="shape=ellipse;html=1;dashed=0;whitespace=wrap;aspect=fixed;perimeter=ellipsePerimeter;fillColor=#d5e8d4;strokeColor=#82b366;" vertex="1" parent="1">
          <mxGeometry x="217.25" y="80" width="20" height="20" as="geometry" />
        </mxCell>
        <mxCell id="9KFcbnp4R5V4EEqKoFkb-83" value="" style="shape=ellipse;html=1;dashed=0;whitespace=wrap;aspect=fixed;perimeter=ellipsePerimeter;fillColor=#d5e8d4;strokeColor=#82b366;" vertex="1" parent="1">
          <mxGeometry x="199.25" y="58" width="20" height="20" as="geometry" />
        </mxCell>
        <mxCell id="9KFcbnp4R5V4EEqKoFkb-84" value="" style="endArrow=classic;html=1;rounded=0;exitX=1;exitY=0;exitDx=0;exitDy=0;entryX=0;entryY=0.5;entryDx=0;entryDy=0;fillColor=#d5e8d4;strokeColor=#82b366;" edge="1" parent="1" source="9KFcbnp4R5V4EEqKoFkb-77" target="9KFcbnp4R5V4EEqKoFkb-82">
          <mxGeometry width="50" height="50" relative="1" as="geometry">
            <mxPoint x="498.25" y="97" as="sourcePoint" />
            <mxPoint x="548.25" y="47" as="targetPoint" />
            <Array as="points" />
          </mxGeometry>
        </mxCell>
        <mxCell id="9KFcbnp4R5V4EEqKoFkb-85" value="" style="endArrow=classic;html=1;rounded=0;exitX=1;exitY=0;exitDx=0;exitDy=0;entryX=0;entryY=1;entryDx=0;entryDy=0;fillColor=#d5e8d4;strokeColor=#82b366;" edge="1" parent="1" source="9KFcbnp4R5V4EEqKoFkb-78" target="9KFcbnp4R5V4EEqKoFkb-82">
          <mxGeometry width="50" height="50" relative="1" as="geometry">
            <mxPoint x="438.25" y="117" as="sourcePoint" />
            <mxPoint x="548.25" y="47" as="targetPoint" />
          </mxGeometry>
        </mxCell>
        <mxCell id="9KFcbnp4R5V4EEqKoFkb-86" value="" style="endArrow=classic;html=1;rounded=0;exitX=0;exitY=0;exitDx=0;exitDy=0;entryX=1;entryY=1;entryDx=0;entryDy=0;fillColor=#d5e8d4;strokeColor=#82b366;" edge="1" parent="1" source="9KFcbnp4R5V4EEqKoFkb-78" target="9KFcbnp4R5V4EEqKoFkb-81">
          <mxGeometry width="50" height="50" relative="1" as="geometry">
            <mxPoint x="498.25" y="57" as="sourcePoint" />
            <mxPoint x="548.25" y="7" as="targetPoint" />
          </mxGeometry>
        </mxCell>
        <mxCell id="9KFcbnp4R5V4EEqKoFkb-87" value="" style="endArrow=classic;html=1;rounded=0;exitX=0.5;exitY=0;exitDx=0;exitDy=0;entryX=1;entryY=1;entryDx=0;entryDy=0;fillColor=#d5e8d4;strokeColor=#82b366;" edge="1" parent="1" source="9KFcbnp4R5V4EEqKoFkb-79" target="9KFcbnp4R5V4EEqKoFkb-82">
          <mxGeometry width="50" height="50" relative="1" as="geometry">
            <mxPoint x="498.25" y="57" as="sourcePoint" />
            <mxPoint x="548.25" y="7" as="targetPoint" />
          </mxGeometry>
        </mxCell>
        <mxCell id="9KFcbnp4R5V4EEqKoFkb-88" value="" style="endArrow=classic;html=1;rounded=0;exitX=0.5;exitY=0;exitDx=0;exitDy=0;entryX=0;entryY=0.5;entryDx=0;entryDy=0;fillColor=#d5e8d4;strokeColor=#82b366;" edge="1" parent="1" source="9KFcbnp4R5V4EEqKoFkb-81" target="9KFcbnp4R5V4EEqKoFkb-83">
          <mxGeometry width="50" height="50" relative="1" as="geometry">
            <mxPoint x="498.25" y="57" as="sourcePoint" />
            <mxPoint x="548.25" y="7" as="targetPoint" />
          </mxGeometry>
        </mxCell>
        <mxCell id="9KFcbnp4R5V4EEqKoFkb-89" value="" style="endArrow=classic;html=1;rounded=0;exitX=0.5;exitY=0;exitDx=0;exitDy=0;entryX=1;entryY=0.5;entryDx=0;entryDy=0;fillColor=#d5e8d4;strokeColor=#82b366;" edge="1" parent="1" source="9KFcbnp4R5V4EEqKoFkb-82" target="9KFcbnp4R5V4EEqKoFkb-83">
          <mxGeometry width="50" height="50" relative="1" as="geometry">
            <mxPoint x="498.25" y="57" as="sourcePoint" />
            <mxPoint x="548.25" y="7" as="targetPoint" />
          </mxGeometry>
        </mxCell>
        <mxCell id="9KFcbnp4R5V4EEqKoFkb-90" value="" style="shape=ellipse;html=1;dashed=0;whitespace=wrap;aspect=fixed;perimeter=ellipsePerimeter;fillColor=#e1d5e7;strokeColor=#9673a6;" vertex="1" parent="1">
          <mxGeometry x="277.25" y="111" width="20" height="20" as="geometry" />
        </mxCell>
        <mxCell id="9KFcbnp4R5V4EEqKoFkb-91" value="" style="shape=ellipse;html=1;dashed=0;whitespace=wrap;aspect=fixed;perimeter=ellipsePerimeter;fillColor=#e1d5e7;strokeColor=#9673a6;" vertex="1" parent="1">
          <mxGeometry x="307.25" y="111" width="20" height="20" as="geometry" />
        </mxCell>
        <mxCell id="9KFcbnp4R5V4EEqKoFkb-92" value="" style="shape=ellipse;html=1;dashed=0;whitespace=wrap;aspect=fixed;perimeter=ellipsePerimeter;fillColor=#e1d5e7;strokeColor=#9673a6;" vertex="1" parent="1">
          <mxGeometry x="337.25" y="111" width="20" height="20" as="geometry" />
        </mxCell>
        <mxCell id="9KFcbnp4R5V4EEqKoFkb-93" value="" style="endArrow=classic;html=1;rounded=0;entryX=0;entryY=1;entryDx=0;entryDy=0;exitX=0;exitY=0;exitDx=0;exitDy=0;fillColor=#e1d5e7;strokeColor=#9673a6;" edge="1" parent="1" source="9KFcbnp4R5V4EEqKoFkb-90" target="9KFcbnp4R5V4EEqKoFkb-94">
          <mxGeometry width="50" height="50" relative="1" as="geometry">
            <mxPoint x="287.25" y="108" as="sourcePoint" />
            <mxPoint x="307.25" y="88" as="targetPoint" />
          </mxGeometry>
        </mxCell>
        <mxCell id="9KFcbnp4R5V4EEqKoFkb-94" value="" style="shape=ellipse;html=1;dashed=0;whitespace=wrap;aspect=fixed;perimeter=ellipsePerimeter;fillColor=#e1d5e7;strokeColor=#9673a6;" vertex="1" parent="1">
          <mxGeometry x="291.25" y="80" width="20" height="20" as="geometry" />
        </mxCell>
        <mxCell id="9KFcbnp4R5V4EEqKoFkb-95" value="" style="shape=ellipse;html=1;dashed=0;whitespace=wrap;aspect=fixed;perimeter=ellipsePerimeter;fillColor=#e1d5e7;strokeColor=#9673a6;" vertex="1" parent="1">
          <mxGeometry x="327.25" y="80" width="20" height="20" as="geometry" />
        </mxCell>
        <mxCell id="9KFcbnp4R5V4EEqKoFkb-96" value="" style="shape=ellipse;html=1;dashed=0;whitespace=wrap;aspect=fixed;perimeter=ellipsePerimeter;fillColor=#e1d5e7;strokeColor=#9673a6;" vertex="1" parent="1">
          <mxGeometry x="309.25" y="58" width="20" height="20" as="geometry" />
        </mxCell>
        <mxCell id="9KFcbnp4R5V4EEqKoFkb-97" value="" style="endArrow=classic;html=1;rounded=0;exitX=1;exitY=0;exitDx=0;exitDy=0;entryX=0;entryY=0.5;entryDx=0;entryDy=0;fillColor=#e1d5e7;strokeColor=#9673a6;" edge="1" parent="1" source="9KFcbnp4R5V4EEqKoFkb-90" target="9KFcbnp4R5V4EEqKoFkb-95">
          <mxGeometry width="50" height="50" relative="1" as="geometry">
            <mxPoint x="608.25" y="97" as="sourcePoint" />
            <mxPoint x="658.25" y="47" as="targetPoint" />
            <Array as="points" />
          </mxGeometry>
        </mxCell>
        <mxCell id="9KFcbnp4R5V4EEqKoFkb-98" value="" style="endArrow=classic;html=1;rounded=0;exitX=1;exitY=0;exitDx=0;exitDy=0;entryX=0;entryY=1;entryDx=0;entryDy=0;fillColor=#e1d5e7;strokeColor=#9673a6;" edge="1" parent="1" source="9KFcbnp4R5V4EEqKoFkb-91" target="9KFcbnp4R5V4EEqKoFkb-95">
          <mxGeometry width="50" height="50" relative="1" as="geometry">
            <mxPoint x="548.25" y="117" as="sourcePoint" />
            <mxPoint x="658.25" y="47" as="targetPoint" />
          </mxGeometry>
        </mxCell>
        <mxCell id="9KFcbnp4R5V4EEqKoFkb-99" value="" style="endArrow=classic;html=1;rounded=0;exitX=0;exitY=0;exitDx=0;exitDy=0;entryX=1;entryY=1;entryDx=0;entryDy=0;fillColor=#e1d5e7;strokeColor=#9673a6;" edge="1" parent="1" source="9KFcbnp4R5V4EEqKoFkb-91" target="9KFcbnp4R5V4EEqKoFkb-94">
          <mxGeometry width="50" height="50" relative="1" as="geometry">
            <mxPoint x="608.25" y="57" as="sourcePoint" />
            <mxPoint x="658.25" y="7" as="targetPoint" />
          </mxGeometry>
        </mxCell>
        <mxCell id="9KFcbnp4R5V4EEqKoFkb-100" value="" style="endArrow=classic;html=1;rounded=0;exitX=0.5;exitY=0;exitDx=0;exitDy=0;entryX=1;entryY=1;entryDx=0;entryDy=0;fillColor=#e1d5e7;strokeColor=#9673a6;" edge="1" parent="1" source="9KFcbnp4R5V4EEqKoFkb-92" target="9KFcbnp4R5V4EEqKoFkb-95">
          <mxGeometry width="50" height="50" relative="1" as="geometry">
            <mxPoint x="608.25" y="57" as="sourcePoint" />
            <mxPoint x="658.25" y="7" as="targetPoint" />
          </mxGeometry>
        </mxCell>
        <mxCell id="9KFcbnp4R5V4EEqKoFkb-101" value="" style="endArrow=classic;html=1;rounded=0;exitX=0.5;exitY=0;exitDx=0;exitDy=0;entryX=0;entryY=0.5;entryDx=0;entryDy=0;fillColor=#e1d5e7;strokeColor=#9673a6;" edge="1" parent="1" source="9KFcbnp4R5V4EEqKoFkb-94" target="9KFcbnp4R5V4EEqKoFkb-96">
          <mxGeometry width="50" height="50" relative="1" as="geometry">
            <mxPoint x="608.25" y="57" as="sourcePoint" />
            <mxPoint x="658.25" y="7" as="targetPoint" />
          </mxGeometry>
        </mxCell>
        <mxCell id="9KFcbnp4R5V4EEqKoFkb-102" value="" style="endArrow=classic;html=1;rounded=0;exitX=0.5;exitY=0;exitDx=0;exitDy=0;entryX=1;entryY=0.5;entryDx=0;entryDy=0;fillColor=#e1d5e7;strokeColor=#9673a6;" edge="1" parent="1" source="9KFcbnp4R5V4EEqKoFkb-95" target="9KFcbnp4R5V4EEqKoFkb-96">
          <mxGeometry width="50" height="50" relative="1" as="geometry">
            <mxPoint x="608.25" y="57" as="sourcePoint" />
            <mxPoint x="658.25" y="7" as="targetPoint" />
          </mxGeometry>
        </mxCell>
        <mxCell id="9KFcbnp4R5V4EEqKoFkb-104" value="" style="shape=ellipse;html=1;dashed=0;whitespace=wrap;aspect=fixed;perimeter=ellipsePerimeter;fillColor=#6d8764;strokeColor=#3A5431;fontColor=#ffffff;" vertex="1" parent="1">
          <mxGeometry x="389" y="216" width="20" height="20" as="geometry" />
        </mxCell>
        <mxCell id="9KFcbnp4R5V4EEqKoFkb-105" value="" style="shape=ellipse;html=1;dashed=0;whitespace=wrap;aspect=fixed;perimeter=ellipsePerimeter;fillColor=#6d8764;strokeColor=#3A5431;fontColor=#ffffff;" vertex="1" parent="1">
          <mxGeometry x="419" y="216" width="20" height="20" as="geometry" />
        </mxCell>
        <mxCell id="9KFcbnp4R5V4EEqKoFkb-106" value="" style="shape=ellipse;html=1;dashed=0;whitespace=wrap;aspect=fixed;perimeter=ellipsePerimeter;fillColor=#6d8764;strokeColor=#3A5431;fontColor=#ffffff;" vertex="1" parent="1">
          <mxGeometry x="449" y="216" width="20" height="20" as="geometry" />
        </mxCell>
        <mxCell id="9KFcbnp4R5V4EEqKoFkb-107" value="" style="endArrow=classic;html=1;rounded=0;entryX=0;entryY=1;entryDx=0;entryDy=0;exitX=0;exitY=0;exitDx=0;exitDy=0;fillColor=#6d8764;strokeColor=#3A5431;" edge="1" parent="1" source="9KFcbnp4R5V4EEqKoFkb-104" target="9KFcbnp4R5V4EEqKoFkb-108">
          <mxGeometry width="50" height="50" relative="1" as="geometry">
            <mxPoint x="399" y="213" as="sourcePoint" />
            <mxPoint x="419" y="193" as="targetPoint" />
          </mxGeometry>
        </mxCell>
        <mxCell id="9KFcbnp4R5V4EEqKoFkb-108" value="" style="shape=ellipse;html=1;dashed=0;whitespace=wrap;aspect=fixed;perimeter=ellipsePerimeter;fillColor=#6d8764;strokeColor=#3A5431;fontColor=#ffffff;" vertex="1" parent="1">
          <mxGeometry x="403" y="185" width="20" height="20" as="geometry" />
        </mxCell>
        <mxCell id="9KFcbnp4R5V4EEqKoFkb-109" value="" style="shape=ellipse;html=1;dashed=0;whitespace=wrap;aspect=fixed;perimeter=ellipsePerimeter;fillColor=#6d8764;strokeColor=#3A5431;fontColor=#ffffff;" vertex="1" parent="1">
          <mxGeometry x="439" y="185" width="20" height="20" as="geometry" />
        </mxCell>
        <mxCell id="9KFcbnp4R5V4EEqKoFkb-110" value="" style="shape=ellipse;html=1;dashed=0;whitespace=wrap;aspect=fixed;perimeter=ellipsePerimeter;fillColor=#6d8764;strokeColor=#3A5431;fontColor=#ffffff;" vertex="1" parent="1">
          <mxGeometry x="421" y="163" width="20" height="20" as="geometry" />
        </mxCell>
        <mxCell id="9KFcbnp4R5V4EEqKoFkb-111" value="" style="endArrow=classic;html=1;rounded=0;exitX=1;exitY=0;exitDx=0;exitDy=0;entryX=0;entryY=0.5;entryDx=0;entryDy=0;fillColor=#6d8764;strokeColor=#3A5431;" edge="1" parent="1" source="9KFcbnp4R5V4EEqKoFkb-104" target="9KFcbnp4R5V4EEqKoFkb-109">
          <mxGeometry width="50" height="50" relative="1" as="geometry">
            <mxPoint x="720" y="202" as="sourcePoint" />
            <mxPoint x="770" y="152" as="targetPoint" />
            <Array as="points" />
          </mxGeometry>
        </mxCell>
        <mxCell id="9KFcbnp4R5V4EEqKoFkb-113" value="" style="endArrow=classic;html=1;rounded=0;exitX=0;exitY=0;exitDx=0;exitDy=0;entryX=1;entryY=1;entryDx=0;entryDy=0;fillColor=#6d8764;strokeColor=#3A5431;" edge="1" parent="1" source="9KFcbnp4R5V4EEqKoFkb-105" target="9KFcbnp4R5V4EEqKoFkb-108">
          <mxGeometry width="50" height="50" relative="1" as="geometry">
            <mxPoint x="720" y="162" as="sourcePoint" />
            <mxPoint x="770" y="112" as="targetPoint" />
          </mxGeometry>
        </mxCell>
        <mxCell id="9KFcbnp4R5V4EEqKoFkb-114" value="" style="endArrow=classic;html=1;rounded=0;exitX=0.5;exitY=0;exitDx=0;exitDy=0;entryX=1;entryY=1;entryDx=0;entryDy=0;fillColor=#6d8764;strokeColor=#3A5431;" edge="1" parent="1" source="9KFcbnp4R5V4EEqKoFkb-106" target="9KFcbnp4R5V4EEqKoFkb-109">
          <mxGeometry width="50" height="50" relative="1" as="geometry">
            <mxPoint x="720" y="162" as="sourcePoint" />
            <mxPoint x="770" y="112" as="targetPoint" />
          </mxGeometry>
        </mxCell>
        <mxCell id="9KFcbnp4R5V4EEqKoFkb-115" value="" style="endArrow=classic;html=1;rounded=0;exitX=0.5;exitY=0;exitDx=0;exitDy=0;entryX=0;entryY=0.5;entryDx=0;entryDy=0;fillColor=#6d8764;strokeColor=#3A5431;" edge="1" parent="1" source="9KFcbnp4R5V4EEqKoFkb-108" target="9KFcbnp4R5V4EEqKoFkb-110">
          <mxGeometry width="50" height="50" relative="1" as="geometry">
            <mxPoint x="720" y="162" as="sourcePoint" />
            <mxPoint x="770" y="112" as="targetPoint" />
          </mxGeometry>
        </mxCell>
        <mxCell id="9KFcbnp4R5V4EEqKoFkb-116" value="" style="endArrow=classic;html=1;rounded=0;exitX=0.5;exitY=0;exitDx=0;exitDy=0;entryX=1;entryY=0.5;entryDx=0;entryDy=0;fillColor=#6d8764;strokeColor=#3A5431;" edge="1" parent="1" source="9KFcbnp4R5V4EEqKoFkb-109" target="9KFcbnp4R5V4EEqKoFkb-110">
          <mxGeometry width="50" height="50" relative="1" as="geometry">
            <mxPoint x="720" y="162" as="sourcePoint" />
            <mxPoint x="770" y="112" as="targetPoint" />
          </mxGeometry>
        </mxCell>
        <mxCell id="9KFcbnp4R5V4EEqKoFkb-117" value="" style="shape=image;html=1;verticalAlign=top;verticalLabelPosition=bottom;labelBackgroundColor=#ffffff;imageAspect=0;aspect=fixed;image=https://cdn4.iconfinder.com/data/icons/ionicons/512/icon-plus-128.png" vertex="1" parent="1">
          <mxGeometry x="141" y="74" width="34" height="34" as="geometry" />
        </mxCell>
        <mxCell id="9KFcbnp4R5V4EEqKoFkb-118" value="" style="shape=image;html=1;verticalAlign=top;verticalLabelPosition=bottom;labelBackgroundColor=#ffffff;imageAspect=0;aspect=fixed;image=https://cdn4.iconfinder.com/data/icons/ionicons/512/icon-plus-128.png" vertex="1" parent="1">
          <mxGeometry x="251" y="74" width="34" height="34" as="geometry" />
        </mxCell>
        <mxCell id="9KFcbnp4R5V4EEqKoFkb-119" value="" style="endArrow=classic;html=1;rounded=0;exitX=0.5;exitY=0;exitDx=0;exitDy=0;entryX=0.25;entryY=1;entryDx=0;entryDy=0;" edge="1" parent="1" source="9KFcbnp4R5V4EEqKoFkb-21" target="9KFcbnp4R5V4EEqKoFkb-60">
          <mxGeometry width="50" height="50" relative="1" as="geometry">
            <mxPoint x="390" y="150" as="sourcePoint" />
            <mxPoint x="440" y="100" as="targetPoint" />
          </mxGeometry>
        </mxCell>
        <mxCell id="9KFcbnp4R5V4EEqKoFkb-120" value="" style="endArrow=classic;html=1;rounded=0;exitX=0.44;exitY=0.01;exitDx=0;exitDy=0;exitPerimeter=0;entryX=0.5;entryY=1;entryDx=0;entryDy=0;" edge="1" parent="1" source="9KFcbnp4R5V4EEqKoFkb-58" target="9KFcbnp4R5V4EEqKoFkb-60">
          <mxGeometry width="50" height="50" relative="1" as="geometry">
            <mxPoint x="390" y="150" as="sourcePoint" />
            <mxPoint x="440" y="100" as="targetPoint" />
          </mxGeometry>
        </mxCell>
        <mxCell id="9KFcbnp4R5V4EEqKoFkb-121" value="" style="endArrow=classic;html=1;rounded=0;exitX=0.5;exitY=0;exitDx=0;exitDy=0;entryX=0.75;entryY=1;entryDx=0;entryDy=0;" edge="1" parent="1" source="9KFcbnp4R5V4EEqKoFkb-59" target="9KFcbnp4R5V4EEqKoFkb-60">
          <mxGeometry width="50" height="50" relative="1" as="geometry">
            <mxPoint x="390" y="150" as="sourcePoint" />
            <mxPoint x="440" y="100" as="targetPoint" />
          </mxGeometry>
        </mxCell>
        <mxCell id="9KFcbnp4R5V4EEqKoFkb-122" value="" style="endArrow=classic;html=1;rounded=0;exitX=1;exitY=0.5;exitDx=0;exitDy=0;entryX=0.5;entryY=0;entryDx=0;entryDy=0;" edge="1" parent="1" source="9KFcbnp4R5V4EEqKoFkb-60" target="9KFcbnp4R5V4EEqKoFkb-123">
          <mxGeometry width="50" height="50" relative="1" as="geometry">
            <mxPoint x="390" y="210" as="sourcePoint" />
            <mxPoint x="440" y="160" as="targetPoint" />
          </mxGeometry>
        </mxCell>
        <mxCell id="9KFcbnp4R5V4EEqKoFkb-129" value="&lt;b&gt;1&lt;/b&gt;" style="text;html=1;strokeColor=none;fillColor=none;align=center;verticalAlign=middle;whiteSpace=wrap;rounded=0;" vertex="1" parent="1">
          <mxGeometry x="39.25" y="244" width="60" height="30" as="geometry" />
        </mxCell>
        <mxCell id="9KFcbnp4R5V4EEqKoFkb-130" value="&lt;b&gt;1&lt;/b&gt;" style="text;html=1;strokeColor=none;fillColor=none;align=center;verticalAlign=middle;whiteSpace=wrap;rounded=0;" vertex="1" parent="1">
          <mxGeometry x="141.25" y="245" width="60" height="30" as="geometry" />
        </mxCell>
        <mxCell id="9KFcbnp4R5V4EEqKoFkb-131" value="&lt;b&gt;1&lt;/b&gt;" style="text;html=1;strokeColor=none;fillColor=none;align=center;verticalAlign=middle;whiteSpace=wrap;rounded=0;" vertex="1" parent="1">
          <mxGeometry x="251.25" y="246" width="60" height="30" as="geometry" />
        </mxCell>
        <mxCell id="9KFcbnp4R5V4EEqKoFkb-132" value="&lt;b&gt;2&lt;/b&gt;" style="text;html=1;strokeColor=none;fillColor=none;align=center;verticalAlign=middle;whiteSpace=wrap;rounded=0;" vertex="1" parent="1">
          <mxGeometry x="75.25" y="186.5" width="60" height="30" as="geometry" />
        </mxCell>
        <mxCell id="9KFcbnp4R5V4EEqKoFkb-133" value="&lt;b&gt;2&lt;/b&gt;" style="text;html=1;strokeColor=none;fillColor=none;align=center;verticalAlign=middle;whiteSpace=wrap;rounded=0;" vertex="1" parent="1">
          <mxGeometry x="167.25" y="186.5" width="60" height="30" as="geometry" />
        </mxCell>
        <mxCell id="9KFcbnp4R5V4EEqKoFkb-134" value="&lt;b&gt;2&lt;/b&gt;" style="text;html=1;strokeColor=none;fillColor=none;align=center;verticalAlign=middle;whiteSpace=wrap;rounded=0;" vertex="1" parent="1">
          <mxGeometry x="260" y="186.5" width="60" height="30" as="geometry" />
        </mxCell>
        <mxCell id="9KFcbnp4R5V4EEqKoFkb-136" value="&lt;b&gt;3&lt;/b&gt;" style="text;html=1;strokeColor=none;fillColor=none;align=center;verticalAlign=middle;whiteSpace=wrap;rounded=0;" vertex="1" parent="1">
          <mxGeometry x="331" y="59" width="60" height="30" as="geometry" />
        </mxCell>
        <mxCell id="9KFcbnp4R5V4EEqKoFkb-138" value="&lt;b&gt;4&lt;/b&gt;" style="text;html=1;strokeColor=none;fillColor=none;align=center;verticalAlign=middle;whiteSpace=wrap;rounded=0;" vertex="1" parent="1">
          <mxGeometry x="391" y="266" width="60" height="30" as="geometry" />
        </mxCell>
      </root>
    </mxGraphModel>
  </diagram>
</mxfile>
